#!OML:ASF F:\VICON\USERDATA\INSTALL\rory3\rory3.ASF
:FULLY-SPECIFIED
:DEGREES
365
root -4.04897 16.6979 -23.3839 187.845 -34.5489 -536.981
lowerback -9.83741 -0.822726 4.97832
upperback -6.51018 -2.03651 1.74603
thorax -1.36199 -1.37828 -1.14726
lowerneck -10.3363 -5.18752 -11.9687
upperneck 26.8028 -9.11487 9.42763
head 11.3587 -4.89553 4.18874
rclavicle 3.34952e-014 1.55052e-014
rhumerus -35.6368 14.8631 -97.7113
rradius 41.8473
rwrist 7.4202
rhand -19.5912 -48.7494
rfingers 7.12502
rthumb 6.73449 -78.6223
lclavicle 3.34952e-014 1.55052e-014
lhumerus -33.3923 -7.3663 67.6169
lradius 62.337
lwrist 7.20153
lhand -35.3841 323.456
lfingers 7.12502
lthumb -8.5155 -6.73544
rfemur -27.1667 12.8134 34.4687
rtibia 44.9886
rfoot -21.8911 -5.72632
rtoes 16.2243
lfemur -30.1647 1.6467 -12.5057
ltibia 75.9481
lfoot -22.7736 19.0583
ltoes -6.34374
366
root -4.0604 16.6789 -23.4845 187.786 -33.0196 -536.656
lowerback -10.0677 -0.64661 5.08908
upperback -6.16308 -1.82907 2.04554
thorax -0.854957 -1.25071 -0.898058
lowerneck -10.6742 -5.20523 -11.6437
upperneck 26.6029 -8.98931 9.04003
head 11.2989 -4.81714 3.99643
rclavicle 1.7498e-013 3.22031e-014
rhumerus -34.975 16.1699 -98.2822
rradius 42.0809
rwrist 7.60164
rhand -20.4262 -48.1222
rfingers 7.12502
rthumb 5.92833 -78.0192
lclavicle 1.7498e-013 3.22031e-014
lhumerus -33.658 -6.89879 68.2254
lradius 61.5986
lwrist 6.11136
lhand -34.6778 323.942
lfingers 7.12502
lthumb -7.83379 -6.22311
rfemur -26.8059 14.0359 34.8914
rtibia 45.122
rfoot -21.9613 -4.90806
rtoes 8.31624
lfemur -31.4062 0.820092 -12.204
ltibia 76.4537
lfoot -23.8748 18.344
ltoes -9.25991
367
root -4.10216 16.6794 -23.5453 188.484 -31.6072 -537.286
lowerback -9.62673 -0.409547 5.31824
upperback -6.40095 -1.51104 1.87618
thorax -1.33983 -1.12412 -1.15709
lowerneck -10.8047 -5.06267 -11.3928
upperneck 26.7669 -8.7662 8.73615
head 11.3313 -4.72807 3.87102
rclavicle 5.42682e-014 1.59028e-014
rhumerus -34.9729 17.236 -98.9703
rradius 42.2867
rwrist 7.98174
rhand -20.6306 -48.0345
rfingers 7.12502
rthumb 5.73096 -77.937
lclavicle 5.42682e-014 1.59028e-014
lhumerus -34.842 -6.95691 68.897
lradius 61.4286
lwrist 5.19437
lhand -33.9606 324.307
lfingers 7.12502
lthumb -7.14155 -5.83304
rfemur -26.8148 13.6714 34.2262
rtibia 45.2929
rfoot -22.4164 -2.77431
rtoes 10.6975
lfemur -32.7712 -0.57668 -13.0855
ltibia 76.7438
lfoot -24.2578 18.5394
ltoes -7.96588
368
root -4.10303 16.6589 -23.6477 189.282 -29.5663 -537.596
lowerback -9.79691 -0.0532276 4.76781
upperback -6.4829 -1.03194 2.01899
thorax -1.28798 -0.877433 -0.665525
lowerneck -11.1312 -4.91756 -10.9562
upperneck 26.8581 -8.4488 8.19473
head 11.3462 -4.58582 3.63485
rclavicle -7.70291e-014 -2.38542e-015
rhumerus -34.6234 18.5707 -99.5174
rradius 42.4017
rwrist 8.29214
rhand -20.6011 -48.0398
rfingers 7.12502
rthumb 5.75945 -77.9416
lclavicle -7.70291e-014 -2.38542e-015
lhumerus -35.2563 -6.4052 69.5384
lradius 60.1662
lwrist 4.26453
lhand -33.167 323.875
lfingers 7.12502
lthumb -6.37548 -6.24128
rfemur -27.0991 14.9437 33.8923
rtibia 45.4245
rfoot -22.4876 -2.11622
rtoes 11.4017
lfemur -34.5372 -1.01769 -13.3826
ltibia 77.0686
lfoot -24.0532 19.37
ltoes -9.33459
369
root -4.11835 16.6434 -23.7379 189.731 -28.0973 -537.782
lowerback -9.76583 0.129789 4.64999
upperback -6.46972 -0.787626 2.0964
thorax -1.27625 -0.753862 -0.499123
lowerneck -11.4703 -4.84023 -10.6031
upperneck 26.9335 -8.25401 7.78616
head 11.3853 -4.4941 3.44426
rclavicle 2.78299e-015 1.11319e-014
rhumerus -34.2299 19.9635 -100.102
rradius 42.4582
rwrist 8.40465
rhand -20.5992 -47.7767
rfingers 7.12502
rthumb 5.7613 -77.6784
lclavicle 2.78299e-015 1.11319e-014
lhumerus -36.0049 -6.35814 70.2393
lradius 59.7135
lwrist 4.10407
lhand -33.6373 324.84
lfingers 7.12502
lthumb -6.82942 -5.29017
rfemur -27.0584 15.4124 33.7503
rtibia 45.514
rfoot -22.761 -1.38677
rtoes 11.9362
lfemur -36.089 -2.00101 -13.5033
ltibia 77.2762
lfoot -22.8274 20.4925
ltoes -9.27457
370
root -4.17951 16.642 -23.793 189.506 -27.4168 -537.205
lowerback -9.27017 0.22731 6.23004
upperback -6.42998 -0.745534 2.13374
thorax -1.53376 -0.787758 -1.33108
lowerneck -11.8408 -4.7647 -10.5491
upperneck 27.0877 -8.13884 7.79774
head 11.504 -4.4281 3.44968
rclavicle -8.73659e-014 -2.8625e-014
rhumerus -33.9445 21.1984 -100.745
rradius 42.5276
rwrist 8.59404
rhand -20.8965 -47.3448
rfingers 7.12502
rthumb 5.47423 -77.2541
lclavicle -8.73659e-014 -2.8625e-014
lhumerus -37.0496 -6.6617 71.0134
lradius 60.0842
lwrist 4.42262
lhand -33.8218 327.165
lfingers 7.12502
lthumb -7.00756 -2.97076
rfemur -26.5546 13.9353 34.3349
rtibia 45.4381
rfoot -23.3512 0.830889
rtoes 13.8496
lfemur -37.3175 -3.7875 -12.9699
ltibia 77.4917
lfoot -23.4535 20.5789
ltoes -10.9255
